<svg width="45" height="45" viewBox="0 0 45 45" fill="none" xmlns="http://www.w3.org/2000/svg">
<path d="M9.51902 19.9034C5.10527 10.6747 11.8327 0 22.0626 0V0C32.5038 0 39.2197 11.079 34.3899 20.336L21.5217 45L9.51902 19.9034Z" fill="#19D2BA"/>
<path d="M30.6092 15.3499V20.8221H29.8274C28.964 20.8221 28.2639 20.122 28.2639 19.2586V16.9133C28.2639 16.0499 28.964 15.3499 29.8274 15.3499H30.6092V15.3499Z" fill="#4DBBEB"/>
<path d="M28.2639 16.9134V19.2586H24.7571C24.1496 19.2586 23.5969 18.9064 23.3401 18.3557L21.7798 15.0094L23.9053 14.0182L25.2554 16.9134H28.2639V16.9134Z" fill="#57555C"/>
<path d="M27.8734 9.57981C28.4211 10.754 27.9129 12.149 26.7391 12.6966C26.5918 12.7653 25.6719 13.1944 18.2373 16.6612C17.8461 16.8437 17.3809 16.6741 17.1984 16.2828L15.5466 12.7404L26.8822 7.45422L27.8734 9.57981Z" fill="#F0E6DE"/>
<path d="M26.5519 6.74598L26.8822 7.45422L15.5466 12.7404C14.879 13.0519 14.1578 13.107 13.4933 12.9467C12.5998 12.7314 11.8095 12.1255 11.3908 11.2281L23.4355 5.61168C24.6094 5.06406 26.0047 5.57222 26.5519 6.74598Z" fill="#4DBBEB"/>
<path d="M15.5466 12.7404L17.1984 16.2829L15.7814 16.9439C15.3898 17.1264 14.925 16.9571 14.7425 16.5655L13.421 13.7317C13.2975 13.4671 13.335 13.1689 13.4933 12.9468C14.1578 13.1071 14.8789 13.0519 15.5466 12.7404Z" fill="#57555C"/>
<path d="M22.0405 11.8687C21.8447 11.9598 21.7603 12.1924 21.8513 12.3882C21.9424 12.5836 22.175 12.6684 22.3708 12.5774C22.5662 12.4859 22.651 12.2533 22.56 12.0579C22.4685 11.8621 22.236 11.7777 22.0405 11.8687Z" fill="black"/>
<path d="M12.976 13.1952C12.9342 13.4294 12.9631 13.6747 13.0668 13.8968L14.3883 16.7305C14.6612 17.3161 15.3566 17.573 15.9468 17.298L17.0697 16.7742C17.4069 17.1184 17.9386 17.2319 18.4025 17.0155L21.5907 15.5287L22.9859 18.5208C23.3055 19.2064 24.0008 19.6494 24.757 19.6494H27.9123C28.0939 20.5404 28.8835 21.2129 29.8274 21.2129H30.6091C30.825 21.2129 31 21.0379 31 20.822V15.3499C31 15.134 30.825 14.959 30.6091 14.959H29.8274C28.8836 14.959 28.0939 15.6315 27.9123 16.5225H25.5044L24.4247 14.2072L26.9044 13.0508C28.2716 12.413 28.8652 10.7818 28.2276 9.41461C28.1803 9.31325 26.9766 6.73187 26.9061 6.58086C26.2672 5.21038 24.6409 4.61816 23.2703 5.25746L11.2256 10.8739C11.1317 10.9177 11.059 10.997 11.0235 11.0945C10.9881 11.1919 10.9928 11.2994 11.0366 11.3934C11.4286 12.2337 12.1222 12.8726 12.976 13.1952ZM15.6164 16.5896C15.4203 16.681 15.1883 16.5966 15.0968 16.4003L13.7752 13.5664C13.7493 13.5108 13.7381 13.4508 13.7397 13.3912C14.3029 13.4711 14.8463 13.4116 15.3486 13.2408L16.6789 16.0939L15.6164 16.5896ZM29.8274 15.7407H30.2183V20.4312H29.8274C29.1809 20.4312 28.6548 19.9052 28.6548 19.2585V16.9133C28.6548 16.2668 29.1809 15.7407 29.8274 15.7407ZM24.9012 17.0785C24.9654 17.2162 25.1035 17.3042 25.2554 17.3042H27.8731V18.8677H24.7571C24.3033 18.8677 23.8862 18.6019 23.6944 18.1905L22.2992 15.1984L23.7163 14.5376L24.9012 17.0785ZM26.5739 12.3424L18.0721 16.307C17.876 16.3984 17.6438 16.3131 17.5527 16.1177L16.066 12.9295L26.6932 7.97371L27.5192 9.74501C27.9746 10.7216 27.5506 11.8868 26.5739 12.3424ZM23.6008 5.96593C24.5796 5.50937 25.7412 5.93214 26.1977 6.91121L26.3628 7.26523L15.3814 12.3862C15.3814 12.3862 15.3813 12.3862 15.3813 12.3862C14.135 12.9677 12.6695 12.531 11.9354 11.4055L23.6008 5.96593Z" fill="black"/>
<path d="M25.5827 10.2168L23.4575 11.2081C23.2619 11.2993 23.1773 11.5319 23.2685 11.7275C23.3349 11.8697 23.4758 11.9533 23.623 11.9533C23.6784 11.9533 23.7346 11.9415 23.788 11.9165L25.9132 10.9253C26.1088 10.8341 26.1934 10.6015 26.1022 10.4058C26.0109 10.2102 25.7784 10.1256 25.5827 10.2168Z" fill="black"/>
</svg>
